# xmcd
#
# Track frame offsets: 
#        150
#        12429
#        24703
#        34970
#        50902
#        66458
#        75770
#        87973
#        101232
#        114792
#        129379
#        143196
#        151769
#        163611
#        180355
#        194736
#        208766
#        217535
#        227954
#        242471
#        255375
#        271018
#        284279
#        299012
#
# Disc length: 4094 seconds
#
# Revision: 3
# Processed by: cddbd v1.5.2PL0 Copyright (c) Steve Scherf et al.
# Submitted via: ExactAudioCopy v0.95b4
#
DISCID=520ffc18
DTITLE=Various Artist - Blues and Boogie Woogie
DYEAR=1988
DGENRE=Blues
TTITLE0=Jean Jacques Milteau, Rolando Tambin,Terry Lipton - Fast Blues
TTITLE1=Mauro Serri, Rolando Tambin, Terry Lipton - Three Kings
TTITLE2=Jean Yves D'Angelo, Kamil Rustam - Booster Blues
TTITLE3=Eric Gemsa - Blues For Memphis
TTITLE4=Alain Giroux, Jean Jacques Milteau - Basement Blues
TTITLE5=Jean Jacques Milteau - Texas Slide
TTITLE6=Mauro Serri, Rolando Tambin, Terry Lipton - Rice And Tuna
TTITLE7=Eric Gemsa, Rolando Tambin, Terry Lipton - Tin Pan Blues
TTITLE8=Alain Giroux, Jean Jacques Milteau - Exhibition Blues
TTITLE9=Jean Jacques Milteau, Rolando Tambin, Terry Lipton - Southside
TTITLE9=Rumors
TTITLE10=Jean Yves D'Angelo, Kamil Rustam - Black Box Boogie
TTITLE11=Eric Gemsa - Boogie Express
TTITLE12=Armand Frydman, Didier Malherbe - Bluesy Shadow
TTITLE13=Alain Giroux, Jean Jacques Milteau - Humphrey Boogie
TTITLE14=Eric Gemsa, Rolando Tambin, Terry Lipton - St James Infirmary
TTITLE15=Jean Jacques Milteau - Heat Road
TTITLE16=Michel Haumont - Rocking Chair
TTITLE17=Alain Giroux, Jean Jacques Milteau - Nine Strings Blues
TTITLE18=Philippe Lhommet, Rolando Tambin, Terry Lipton - Cotton
TTITLE19=Eric Gemsa - Boston Boogie
TTITLE20=Teddy Lasry - Screen Writers
TTITLE21=Pierre Fanen - Tommy
TTITLE22=Armand Frydman, Denis Van Hecke - Four Strings Blues
TTITLE23=Alain Giroux, Jean Jacques Milteau - Don't Wait For Me Tonigh
TTITLE23=t
EXTD=
EXTT0=
EXTT1=
EXTT2=
EXTT3=
EXTT4=
EXTT5=
EXTT6=
EXTT7=
EXTT8=
EXTT9=
EXTT10=
EXTT11=
EXTT12=
EXTT13=
EXTT14=
EXTT15=
EXTT16=
EXTT17=
EXTT18=
EXTT19=
EXTT20=
EXTT21=
EXTT22=
EXTT23=
PLAYORDER=
